# xmcd
#
# Track frame offsets:
#	150
#	16705
#	32605
#	50320
#	68847
#	85325
#	101177
#	118830
#
# Disc length: 1831 seconds
#
# Revision: 1
# Processed by: cddbd v1.5.1PL2 Copyright (c) Steve Scherf et al.
# Submitted via: audiograbber 1.83.01
#
DISCID=60072508
DTITLE=Various Artist - SC7757
DYEAR=1900
DGENRE=Karaoke
TTITLE0=Faith Hill - This Kiss
TTITLE1=Shania Twain - You're Still the One
TTITLE2=Dixie Chicks - Wide Open Spaces
TTITLE3=Wilkinsons, The - 26 cents
TTITLE4=Faith Hill - This Kiss (vocals)
TTITLE5=Shania Twain - You're Still the One (vocals)
TTITLE6=Dixie Chicks - Wide Open Spaces (vocals)
TTITLE7=Wilkinsons, The - 26 cents (vocals)
EXTD=
EXTT0=
EXTT1=
EXTT2=
EXTT3=
EXTT4=
EXTT5=
EXTT6=
EXTT7=
PLAYORDER=
